HIERARCHY
ROOT joint_Root
{
	OFFSET 0.0 0.0 0.0
	CHANNELS 6 Xposition Yposition Zposition Zrotation Xrotation Yrotation 
	JOINT Hips
	{
		OFFSET 4.5925 91.4895 -427.239
		CHANNELS 6 Xposition Yposition Zposition Zrotation Xrotation Yrotation 
		JOINT Spine
		{
			OFFSET 15.7357 0.0 0.0
			CHANNELS 6 Xposition Yposition Zposition Zrotation Xrotation Yrotation 
			JOINT Chest
			{
				OFFSET 8.98455 -0.406207 0.0
				CHANNELS 6 Xposition Yposition Zposition Zrotation Xrotation Yrotation 
				JOINT Neck
				{
					OFFSET 16.3773 0.0 0.0
					CHANNELS 6 Xposition Yposition Zposition Zrotation Xrotation Yrotation 
					JOINT Head
					{
						OFFSET 6.45672 0.0 0.0
						CHANNELS 6 Xposition Yposition Zposition Zrotation Xrotation Yrotation 
						End Site
						{
							OFFSET 0.0 0.0 0.0
						}
					}
				}
				JOINT Shoulder_L
				{
					OFFSET 12.9942 -0.242716 4.98039
					CHANNELS 6 Xposition Yposition Zposition Zrotation Xrotation Yrotation 
					JOINT UpperArm_L
					{
						OFFSET 5.34809 0.0 0.0
						CHANNELS 6 Xposition Yposition Zposition Zrotation Xrotation Yrotation 
						JOINT LowerArm_L
						{
							OFFSET 24.3286 1.87007e-05 0.0
							CHANNELS 6 Xposition Yposition Zposition Zrotation Xrotation Yrotation 
							JOINT Hand_L
							{
								OFFSET 22.2916 0.0 0.0
								CHANNELS 6 Xposition Yposition Zposition Zrotation Xrotation Yrotation 
								End Site
								{
									OFFSET 0.0 0.0 0.0
								}
							}
						}
					}
				}
				JOINT Shoulder_R
				{
					OFFSET 12.9945 -0.242716 -4.98039
					CHANNELS 6 Xposition Yposition Zposition Zrotation Xrotation Yrotation 
					JOINT UpperArm_R
					{
						OFFSET -5.34813 0.0 0.0
						CHANNELS 6 Xposition Yposition Zposition Zrotation Xrotation Yrotation 
						JOINT LowerArm_R
						{
							OFFSET -24.3289 0.000322201 0.0
							CHANNELS 6 Xposition Yposition Zposition Zrotation Xrotation Yrotation 
							JOINT Hand_R
							{
								OFFSET -22.2915 -0.000108084 0.0
								CHANNELS 6 Xposition Yposition Zposition Zrotation Xrotation Yrotation 
								End Site
								{
									OFFSET 0.0 0.0 0.0
								}
							}
						}
					}
				}
			}
		}
		JOINT UpperLeg_L
		{
			OFFSET -2.19248 -6.46944 0.0
			CHANNELS 6 Xposition Yposition Zposition Zrotation Xrotation Yrotation 
			JOINT LowerLeg_L
			{
				OFFSET 39.0811 0.0 -1.23785e-05
				CHANNELS 6 Xposition Yposition Zposition Zrotation Xrotation Yrotation 
				JOINT Foot_L
				{
					OFFSET 40.9854 0.0 -1.26872e-05
					CHANNELS 6 Xposition Yposition Zposition Zrotation Xrotation Yrotation 
					JOINT Toes_L
					{
						OFFSET 11.7543 0.0 0.0
						CHANNELS 6 Xposition Yposition Zposition Zrotation Xrotation Yrotation 
						End Site
						{
							OFFSET 0.0 0.0 0.0
						}
					}
				}
			}
		}
		JOINT UpperLeg_R
		{
			OFFSET -2.19251 6.46944 0.0
			CHANNELS 6 Xposition Yposition Zposition Zrotation Xrotation Yrotation 
			JOINT LowerLeg_R
			{
				OFFSET -39.0811 -0.00228153 -0.0401928
				CHANNELS 6 Xposition Yposition Zposition Zrotation Xrotation Yrotation 
				JOINT Foot_R
				{
					OFFSET -40.9854 0.0 0.0
					CHANNELS 6 Xposition Yposition Zposition Zrotation Xrotation Yrotation 
					JOINT Toes_R
					{
						OFFSET -11.7543 0.0 0.0
						CHANNELS 6 Xposition Yposition Zposition Zrotation Xrotation Yrotation 
						End Site
						{
							OFFSET 0.0 0.0 0.0
						}
					}
				}
			}
		}
	}
}
MOTION
Frames:	5
Frame Time:	0.0333333
0.000000 0.000000 0.000000 0.000000 0.000000 -0.000000 -2.774240 91.039000 -1.574530 86.040300 -6.453670 4.490980 15.735700 0.000005 -0.000001 75.852800 85.172400 -79.954000 8.984550 -0.406207 -0.000000 1.534290 -2.135980 -8.166930 16.377300 -0.000001 -0.000001 3.234740 -0.184399 1.589850 6.456720 -0.000001 -0.000000 -3.663300 2.327620 1.707610 12.994200 -0.242716 4.980390 -90.378900 0.905618 -67.298100 5.348090 -0.000007 -0.000001 -65.974000 17.226200 -5.408980 24.328600 0.000019 0.000005 5.376640 14.597800 -20.480700 22.291600 -0.000001 0.000005 13.971800 5.182980 3.146830 12.994500 -0.242716 -4.980390 91.732400 -5.634910 -72.880000 -5.348130 -0.000001 -0.000004 -50.730300 -59.976200 -53.163800 -24.328900 0.000322 -0.000009 -13.593900 -36.317600 -22.205000 -22.291500 -0.000108 -0.000004 27.501200 4.460280 17.222800 -2.192480 -6.469440 -0.000000 -170.789000 -11.569300 -5.940360 39.081100 -0.000007 -0.000012 -0.230278 0.377774 31.365400 40.985400 -0.000006 -0.000013 -2.424070 2.626750 -69.978900 11.754300 -0.000000 0.000003 -0.000198 -0.001832 -16.646700 -2.192510 6.469440 -0.000001 -178.358000 17.236500 175.461000 -39.081100 -0.002282 -0.040193 0.028821 -0.047328 28.330800 -40.985400 0.000008 0.000006 9.513240 14.673200 -70.484400 -11.754300 -0.000006 -0.000006 -0.003778 -0.049113 -18.570800
0.000000 0.000000 0.000000 0.000000 0.000000 -0.000000 -2.496790 91.095600 -1.322710 86.491900 -6.613210 4.420690 15.735700 0.000005 -0.000001 75.752000 85.340500 -79.557600 8.984550 -0.406207 -0.000000 1.209780 -2.075140 -7.583290 16.377300 -0.000001 -0.000001 4.039930 -0.619763 2.433990 6.456720 -0.000001 -0.000000 -3.236170 2.312220 1.971790 12.994200 -0.242716 4.980390 -90.231000 0.555522 -67.421800 5.348090 -0.000007 -0.000001 -66.895200 16.587200 -5.261650 24.328600 0.000019 0.000005 5.539690 17.346400 -18.021100 22.291600 -0.000001 0.000005 12.774500 5.127750 4.472370 12.994500 -0.242716 -4.980390 92.378400 -7.314010 -71.932500 -5.348130 -0.000001 -0.000004 -49.098300 -63.477900 -60.053000 -24.328900 0.000322 -0.000009 -19.562000 -35.220200 -31.640000 -22.291500 -0.000108 -0.000004 24.125100 4.758180 12.066600 -2.192480 -6.469440 -0.000000 -171.373000 -12.221300 -5.531710 39.081100 -0.000007 -0.000012 -0.220575 0.370354 30.777500 40.985400 -0.000006 -0.000013 -2.129120 2.965690 -69.901700 11.754300 -0.000000 0.000003 -0.000176 -0.001662 -16.640500 -2.192510 6.469440 -0.000001 -179.016000 16.973200 175.519000 -39.081100 -0.002282 -0.040193 0.028133 -0.046184 28.261700 -40.985400 0.000008 0.000006 9.351250 14.701100 -70.526900 -11.754300 -0.000006 -0.000006 -0.003733 -0.048637 -18.551400
0.000000 0.000000 0.000000 0.000000 0.000000 -0.000000 -2.309530 91.175300 -1.107160 86.945000 -6.325720 4.182300 15.735700 0.000005 -0.000001 74.316000 85.492800 -77.758200 8.984550 -0.406207 -0.000000 0.856113 -2.228640 -6.862780 16.377300 -0.000001 -0.000001 4.778330 -0.982417 3.592840 6.456720 -0.000001 -0.000000 -2.976170 2.562830 1.691010 12.994200 -0.242716 4.980390 -90.226400 0.544883 -67.437800 5.348090 -0.000007 -0.000001 -67.275700 16.012000 -5.213610 24.328600 0.000019 0.000005 5.015190 17.882700 -15.948700 22.291600 -0.000001 0.000005 12.764800 5.086500 5.419970 12.994500 -0.242716 -4.980390 93.278500 -9.344540 -70.569200 -5.348130 -0.000001 -0.000004 -48.640600 -68.086800 -68.404600 -24.328900 0.000322 -0.000009 -22.538000 -28.146100 -41.352100 -22.291500 -0.000108 -0.000004 23.408600 5.056670 6.109860 -2.192480 -6.469440 -0.000000 -171.936000 -12.736100 -5.352010 39.081100 -0.000007 -0.000012 -0.210098 0.362985 30.062800 40.985400 -0.000006 -0.000013 -1.827720 3.592210 -69.676100 11.754300 -0.000000 0.000003 -0.000164 -0.001564 -16.636900 -2.192510 6.469440 -0.000001 -179.504000 16.671000 175.410000 -39.081100 -0.002282 -0.040193 0.027942 -0.046116 28.111400 -40.985400 0.000008 0.000006 9.035970 14.248900 -70.366100 -11.754300 -0.000006 -0.000006 -0.003561 -0.046795 -18.476400
0.000000 0.000000 0.000000 0.000000 0.000000 -0.000000 -2.278000 91.248600 -0.937982 87.318000 -5.634180 3.855100 15.735700 0.000005 -0.000001 72.373700 85.609000 -75.394400 8.984550 -0.406207 -0.000000 0.546737 -2.468240 -6.025730 16.377300 -0.000001 -0.000001 5.250600 -1.457190 4.843100 6.456720 -0.000001 -0.000000 -2.903600 2.594940 0.790431 12.994200 -0.242716 4.980390 -90.236300 0.569380 -67.462000 5.348090 -0.000007 -0.000001 -67.663200 15.065300 -4.966530 24.328600 0.000019 0.000005 4.649190 17.665800 -15.001500 22.291600 -0.000001 0.000005 13.881800 5.083150 5.497030 12.994500 -0.242716 -4.980390 94.254800 -11.097000 -68.867600 -5.348130 -0.000001 -0.000004 -53.749000 -73.445800 -82.056800 -24.328900 0.000322 -0.000009 -18.614000 -16.425800 -50.019900 -22.291500 -0.000108 -0.000004 26.948200 5.344300 -1.112950 -2.192480 -6.469440 -0.000000 -172.371000 -12.874800 -5.404400 39.081100 -0.000007 -0.000012 -0.202850 0.359781 29.415300 40.985400 -0.000006 -0.000013 -1.622260 4.293580 -69.397400 11.754300 -0.000000 0.000003 -0.000163 -0.001555 -16.636600 -2.192510 6.469440 -0.000001 -179.732000 16.389600 175.224000 -39.081100 -0.002282 -0.040193 0.029564 -0.049504 27.942600 -40.985400 0.000008 0.000006 8.823890 13.338100 -70.199900 -11.754300 -0.000006 -0.000006 -0.003786 -0.049193 -18.574000
0.000000 0.000000 0.000000 0.000000 0.000000 -0.000000 -2.352070 91.308300 -0.870107 87.633300 -4.920370 3.504050 15.735700 0.000005 -0.000001 71.528300 85.664500 -74.192000 8.984550 -0.406207 -0.000000 0.404905 -2.575450 -5.315040 16.377300 -0.000001 -0.000001 5.294240 -2.037440 5.983110 6.456720 -0.000001 -0.000000 -2.862310 2.503880 -0.501748 12.994200 -0.242716 4.980390 -90.190000 0.460806 -67.591000 5.348090 -0.000007 -0.000001 -67.955400 14.496300 -4.652860 24.328600 0.000019 0.000005 4.707610 17.061600 -15.677700 22.291600 -0.000001 0.000005 15.256400 5.075920 5.660130 12.994500 -0.242716 -4.980390 95.023200 -12.278100 -67.544200 -5.348130 -0.000001 -0.000004 -62.030000 -78.940700 -98.126500 -24.328900 0.000322 -0.000009 -12.864600 -7.917980 -58.902700 -22.291500 -0.000108 -0.000004 34.161700 5.616820 -11.359500 -2.192480 -6.469440 -0.000000 -172.723000 -12.658800 -5.616340 39.081100 -0.000007 -0.000012 -0.200915 0.364245 28.881200 40.985400 -0.000006 -0.000013 -1.575580 4.724720 -69.092200 11.754300 -0.000000 0.000003 -0.000165 -0.001575 -16.637300 -2.192510 6.469440 -0.000001 -179.847000 16.383200 175.001000 -39.081100 -0.002282 -0.040193 0.029804 -0.050376 27.744000 -40.985400 0.000008 0.000006 8.642970 12.662800 -70.090100 -11.754300 -0.000006 -0.000006 -0.003921 -0.050617 -18.632000
